<svg width="32" height="32" viewBox="0 0 32 32" fill="none" xmlns="http://www.w3.org/2000/svg">
  <!-- Background Circle -->
  <circle cx="16" cy="16" r="16" fill="url(#gradient1)"/>
  
  <!-- Camera Body -->
  <rect x="8" y="11" width="16" height="11" rx="1.5" fill="#2D3748"/>
  
  <!-- Camera Lens -->
  <circle cx="16" cy="16.5" r="3.5" fill="#718096"/>
  <circle cx="16" cy="16.5" r="2.5" fill="#1A202C"/>
  <circle cx="16" cy="16.5" r="1.2" fill="#4299E1"/>
  
  <!-- Flash -->
  <rect x="11" y="10" width="1.5" height="1" rx="0.25" fill="#F7FAFC"/>
  
  <!-- Shutter Button -->
  <circle cx="21" cy="12.5" r="0.75" fill="#48BB78"/>
  
  <!-- Photo Strip -->
  <rect x="5" y="7.5" width="2.5" height="17" rx="0.5" fill="#F7FAFC" opacity="0.9"/>
  <rect x="5.5" y="9" width="1.5" height="1.5" rx="0.1" fill="#E2E8F0"/>
  <rect x="5.5" y="11" width="1.5" height="1.5" rx="0.1" fill="#E2E8F0"/>
  <rect x="5.5" y="13" width="1.5" height="1.5" rx="0.1" fill="#E2E8F0"/>
  
  <!-- Sparkle -->
  <path d="M9 6 L9.5 7 L10.5 6.5 L9.5 7.5 L9 8.5 L8.5 7.5 L7.5 6.5 L8.5 7 Z" fill="#F6E05E" opacity="0.8"/>
  
  <defs>
    <linearGradient id="gradient1" x1="0%" y1="0%" x2="100%" y2="100%">
      <stop offset="0%" style="stop-color:#667EEA;stop-opacity:1" />
      <stop offset="100%" style="stop-color:#764BA2;stop-opacity:1" />
    </linearGradient>
  </defs>
</svg>
